<svg xmlns="http://www.w3.org/2000/svg" xmlns:xlink="http://www.w3.org/1999/xlink" version="1.1" x="0px" y="0px" viewBox="0 0 179.116 287.72875" style="enable-background:new 0 0 179.116 230.183;" xml:space="preserve"><g><path d="M92.45,217.82v-90v-5.468c-2.117,1.701-5.775,3.649-11.598,3.885c-0.692,0.028-1.407,0.032-2.13,0.011   c-0.843-0.023-1.646-0.053-2.415-0.082c-2.162-0.075-4.032-0.141-5.661-0.075c-1.053,0.042-2.013,0.143-2.923,0.339   c-1.643,0.353-3.118,1.037-4.637,2.337c-1.494,1.28-3.033,3.152-4.828,5.906c-0.19,0.291-0.402,0.583-0.607,0.874   c-4.078,5.803-11.057,11.583-19.291,14.047v68.225c0,6.829,5.535,12.363,12.363,12.363s12.363-5.534,12.363-12.363v-82.272h4.637   v82.272c0,6.829,5.535,12.363,12.363,12.363C86.915,230.183,92.45,224.649,92.45,217.82z"/><path d="M80.5,108.079c0.045,0.313,0.111,0.591,0.196,0.834c0.175,0.478,0.49,1.046,1.521,1.608   c3.222,1.758,4.857,2.01,7.305,1.912c0.675-0.028,1.401-0.082,2.21-0.148l0.196-0.013c0.178-0.007,0.351,0.003,0.521,0.016v-3.408   v-5.627l-1.142,0.461L80.5,108.079z"/><ellipse transform="matrix(0.2268 -0.9739 0.9739 0.2268 28.659 81.0989)" cx="65.406" cy="22.5" rx="22.495" ry="22.495"/><path d="M56.582,133.58c2.378-3.648,4.411-5.928,6.505-7.339c1.469-0.99,2.968-1.553,4.637-1.856   c2.397-0.436,5.144-0.34,8.656-0.216c0.766,0.027,1.563,0.056,2.4,0.08c8.179,0.238,12.138-2.912,13.67-4.612   c0.237-0.264,0.422-0.495,0.549-0.671c0.931-1.282,1.266-2.559,0.925-3.503c-0.236-0.655-0.773-1.055-1.474-1.155   c-0.178-0.025-0.358-0.045-0.556-0.029c-4.198,0.346-6.241,0.397-10.635-2c-1.25-0.683-2.028-1.537-2.444-2.687   c-0.274-0.763-0.405-1.694-0.385-2.831l11.898-4.805l2.121-0.856l20.225-8.167l15.51-6.264c0.059-0.499,0.146-1,0.284-1.5   l1.02-3.675l0.228-0.819c1.2-4.312,5.159-7.327,9.63-7.327c0.903,0,1.805,0.125,2.684,0.367c2.572,0.713,4.713,2.389,6.029,4.713   c0.033,0.059,0.059,0.12,0.09,0.178l11.688-4.72l0.472,1.308l18.809-6.802l-4.421-12.225l-18.809,6.802l0.473,1.307l-39.631,12.702   l-19.281,6.18l-4.997,1.602L83.36,87.67c0.179-1.628-0.006-3.253-0.566-4.8c-1.408-3.895-5.018-7.011-9.42-8.132   c-4.21-1.073-8.415-0.102-11.568,2.696c-0.106,0.105-10.666,10.379-22.473,7.135c0.237,0.331,0.489,0.669,0.762,1.015   c1.959,2.474,5.743,6.296,12.861,11.143c0.244,0.166,0.491,0.332,0.742,0.501c0.14-0.077,0.276-0.159,0.421-0.229   c0.292-0.142,0.593-0.272,0.905-0.385c4.756-1.72,10.008,0.741,11.728,5.497c1.481,4.099-0.146,8.557-3.664,10.814   c-0.566,0.364-1.177,0.676-1.836,0.914c-0.805,0.291-1.624,0.453-2.438,0.514c-1.878,2.086-4.534,3.306-7.407,3.306H51.4   c-1.879,0-3.716-0.531-5.313-1.532c-2.793-1.758-5.36-3.499-7.726-5.231c-5.873-4.3-10.467-8.544-13.916-12.854   c-3.449-4.3-5.734-8.826-6.777-13.329c-4.079,1.362-7.924,3.57-11.047,6.849c-5.168,5.428-9.974,15.655-3.498,33.56   c6.475,17.907,16.709,22.697,24.154,23.558c3.835,0.445,7.58-0.036,11.084-1.155c6.945-2.218,12.941-6.948,16.817-11.977   C55.682,134.895,56.153,134.238,56.582,133.58z"/><path d="M146.282,79.358c-1.011-1.756-2.684-3.133-4.789-3.718c-4.259-1.182-8.667,1.311-9.849,5.569l-0.068,0.247l-1.18,4.245   c-0.008,0.026-0.011,0.053-0.018,0.08c-0.109,0.411-0.18,0.822-0.223,1.232c-0.036,0.347-0.058,0.692-0.049,1.034l-14.937,6.032   c4.726,2.034,9.767,3.423,15.133,3.448c0.016,0,0.031,0,0.047,0c3.703,0.001,7.557-0.737,11.17-2.45   c0.069-0.033,0.133-0.073,0.201-0.107c0.076-0.039,0.149-0.08,0.225-0.121c0.336-0.184,0.658-0.392,0.965-0.623   c0.309-0.231,0.598-0.482,0.865-0.752c0.05-0.05,0.101-0.1,0.149-0.151c0.255-0.271,0.492-0.56,0.71-0.867   c0.042-0.06,0.08-0.122,0.12-0.182c0.212-0.318,0.409-0.649,0.576-1.002c0.007-0.015,0.014-0.029,0.02-0.044   c0.169-0.363,0.308-0.748,0.423-1.144c0.011-0.035,0.028-0.066,0.038-0.101l1.248-4.494c0.404-1.456,0.369-2.927-0.01-4.284   c-0.033-0.118-0.061-0.238-0.1-0.354C146.78,80.33,146.555,79.83,146.282,79.358z"/><path d="M19.578,84.145c0.963,4.265,3.138,8.544,6.43,12.648c3.069,3.838,7.112,7.668,12.352,11.615   c0.008,0.006,0.015,0.012,0.023,0.018c2.615,1.968,5.522,3.964,8.766,6.006c1.322,0.831,2.795,1.228,4.249,1.228   c1.671,0.001,3.318-0.524,4.689-1.513c0.67-0.483,1.262-1.088,1.771-1.786c0.107-0.148,0.223-0.287,0.321-0.444   c2.35-3.741,1.224-8.68-2.518-11.031c-0.679-0.426-1.331-0.846-1.97-1.263c-0.596-0.389-1.172-0.773-1.733-1.155   c-0.93-0.632-1.816-1.253-2.655-1.864c-5.131-3.729-8.616-7.045-10.782-9.78c-0.057-0.072-0.106-0.14-0.161-0.211   c-0.8-1.033-1.416-1.96-1.886-2.791c-0.478-0.846-0.808-1.594-1.03-2.253c-0.334-0.992-0.432-1.787-0.438-2.421   c0.001-0.065,0.014-0.125,0.016-0.19c0.048-1.244,0.43-2.336,1.355-3.693c0.5-0.741,1.192-1.498,1.982-2.232v9.191   c0.347,0.094,0.694,0.188,1.034,0.292c1.712,0.527,3.51,0.756,5.346,0.683c8.517-0.344,15.383-6.92,15.671-7.2   c2.579-2.29,5.676-3.54,9.021-3.674c1.469-0.06,2.96,0.101,4.435,0.475c5.036,1.284,9.177,4.882,10.808,9.391   c0.323,0.896,0.543,1.814,0.658,2.748l7.117-2.281v-3.635c0.684,0.595,1.378,1.192,2.097,1.792c0.336,0.28,0.684,0.561,1.028,0.841   l18.87-6.048c-5.618-3.534-11.157-8.173-15.417-12.208c-2.616-2.467-4.776-4.7-6.263-6.294c-0.495-0.531-0.908-0.983-1.247-1.359   c-1.308-2.41-3.86-4.047-6.795-4.047H46.087c-0.464,0-0.917,0.048-1.358,0.126c-0.797,0.029-1.604,0.177-2.395,0.459   c-0.406,0.161-5.444,1.924-10.973,5.851c-2.759,1.979-5.681,4.522-8.099,7.964c-2.404,3.407-4.271,7.921-4.256,13.048   c0,0.135,0.007,0.272,0.01,0.407c0.015,0.864,0.081,1.731,0.199,2.6C19.306,82.817,19.428,83.481,19.578,84.145z"/></g><text x="0" y="245.183" fill="#000000" font-size="5px" font-weight="bold" font-family="'Helvetica Neue', Helvetica, Arial-Unicode, Arial, Sans-serif">Created by Gan Khoon Lay</text><text x="0" y="250.183" fill="#000000" font-size="5px" font-weight="bold" font-family="'Helvetica Neue', Helvetica, Arial-Unicode, Arial, Sans-serif">from the Noun Project</text></svg>